<svg width="32" height="32" viewBox="0 0 32 32" fill="none" xmlns="http://www.w3.org/2000/svg">
  <defs>
    <linearGradient id="monogramGradient" x1="0%" y1="0%" x2="100%" y2="100%">
      <stop offset="0%" style="stop-color:#d4af37;stop-opacity:1" />
      <stop offset="50%" style="stop-color:#e6c866;stop-opacity:1" />
      <stop offset="100%" style="stop-color:#d4af37;stop-opacity:1" />
    </linearGradient>
    <filter id="glow">
      <feGaussianBlur stdDeviation="2" result="coloredBlur"/>
      <feMerge> 
        <feMergeNode in="coloredBlur"/>
        <feMergeNode in="SourceGraphic"/>
      </feMerge>
    </filter>
  </defs>
  
  <!-- H↔8 Ligature - The core monogram -->
  <g id="monogram" transform="translate(2, 2)">
    <!-- H stroke 1 (left vertical) -->
    <path d="M4 2 L4 26" stroke="url(#monogramGradient)" stroke-width="2" stroke-linecap="round" fill="none"/>
    
    <!-- H stroke 2 (horizontal crossbar) -->
    <path d="M4 14 L12 14" stroke="url(#monogramGradient)" stroke-width="2" stroke-linecap="round" fill="none"/>
    
    <!-- H stroke 3 (right vertical) - morphs into 8 -->
    <path d="M12 2 L12 26" stroke="url(#monogramGradient)" stroke-width="2" stroke-linecap="round" fill="none"/>
    
    <!-- 8 top loop - subtle infinity curve -->
    <path d="M12 6 Q16 6 20 6 Q24 6 24 10 Q24 14 20 14 Q16 14 12 14" 
          stroke="url(#monogramGradient)" stroke-width="2" stroke-linecap="round" fill="none" opacity="0.8"/>
    
    <!-- 8 bottom loop - subtle infinity curve -->
    <path d="M12 14 Q16 14 20 14 Q24 14 24 18 Q24 22 20 22 Q16 22 12 22" 
          stroke="url(#monogramGradient)" stroke-width="2" stroke-linecap="round" fill="none" opacity="0.8"/>
    
    <!-- Subtle infinity hint - very faint connecting line -->
    <path d="M20 6 Q24 6 24 10 Q24 14 20 14 Q16 14 12 14 Q8 14 8 18 Q8 22 12 22" 
          stroke="url(#monogramGradient)" stroke-width="0.5" stroke-linecap="round" fill="none" opacity="0.3"/>
  </g>
  
  <!-- Hover state overlay (initially hidden) -->
  <g id="hoverState" opacity="0" transform="translate(2, 2)">
    <!-- Enhanced infinity curves for hover -->
    <path d="M12 6 Q16 4 20 6 Q24 8 24 10 Q24 12 20 14 Q16 16 12 14" 
          stroke="url(#monogramGradient)" stroke-width="1.5" stroke-linecap="round" fill="none" opacity="0.6"/>
    <path d="M12 14 Q16 16 20 14 Q24 12 24 18 Q24 20 20 22 Q16 24 12 22" 
          stroke="url(#monogramGradient)" stroke-width="1.5" stroke-linecap="round" fill="none" opacity="0.6"/>
    
    <!-- Prosperity sparkle elements -->
    <circle cx="8" cy="8" r="1" fill="url(#monogramGradient)" opacity="0.8">
      <animate attributeName="opacity" values="0.8;0.2;0.8" dur="2s" repeatCount="indefinite"/>
    </circle>
    <circle cx="24" cy="24" r="1" fill="url(#monogramGradient)" opacity="0.8">
      <animate attributeName="opacity" values="0.8;0.2;0.8" dur="2s" repeatCount="indefinite" begin="1s"/>
    </circle>
  </g>
  
  <!-- Prosperity state (for 08:08 moments) -->
  <g id="prosperityState" opacity="0" transform="translate(2, 2)">
    <circle cx="16" cy="16" r="12" stroke="url(#monogramGradient)" stroke-width="1" fill="none" opacity="0.3">
      <animate attributeName="r" values="12;16;12" dur="1.6s" repeatCount="indefinite"/>
      <animate attributeName="opacity" values="0.3;0.1;0.3" dur="1.6s" repeatCount="indefinite"/>
    </circle>
  </g>
</svg>